HIERARCHY
ROOT Hips
{
	OFFSET 62.890800 8.863803 43.568401
	CHANNELS 6 Xposition Yposition Zposition Zrotation Xrotation Yrotation
	JOINT Chest
	{
		OFFSET -0.160400 1.630001 7.806301
		CHANNELS 6 Xposition Yposition Zposition Zrotation Xrotation Yrotation
		JOINT Chest2
		{
			OFFSET 0.000000 0.000000 3.197998
			CHANNELS 6 Xposition Yposition Zposition Zrotation Xrotation Yrotation
			JOINT Neck
			{
				OFFSET 0.000000 0.000001 7.440701
				CHANNELS 6 Xposition Yposition Zposition Zrotation Xrotation Yrotation
				JOINT Head
				{
					OFFSET 0.000000 0.000000 2.173901
					CHANNELS 6 Xposition Yposition Zposition Zrotation Xrotation Yrotation
					End Site
					{
						OFFSET 0.000000 0.000001 10.420303
					}
				}
			}
			JOINT LeftCollar
			{
				OFFSET 2.426399 -1.880099 4.759399
				CHANNELS 6 Xposition Yposition Zposition Zrotation Xrotation Yrotation
				JOINT LeftShoulder
				{
					OFFSET 4.420197 0.000000 0.000000
					CHANNELS 6 Xposition Yposition Zposition Zrotation Xrotation Yrotation
					JOINT LeftElbow
					{
						OFFSET 0.000000 -0.000001 -10.347099
						CHANNELS 6 Xposition Yposition Zposition Zrotation Xrotation Yrotation
						JOINT LeftWrist
						{
							OFFSET 0.000000 -0.000001 -12.496300
							CHANNELS 6 Xposition Yposition Zposition Zrotation Xrotation Yrotation
							End Site
							{
								OFFSET 0.000000 0.000000 -2.173901
							}
						}
					}
				}
			}
			JOINT RightCollar
			{
				OFFSET -2.781502 -1.903799 5.072601
				CHANNELS 6 Xposition Yposition Zposition Zrotation Xrotation Yrotation
				JOINT RightShoulder
				{
					OFFSET -4.012100 0.000000 0.000000
					CHANNELS 6 Xposition Yposition Zposition Zrotation Xrotation Yrotation
					JOINT RightElbow
					{
						OFFSET 0.000000 -0.000001 -10.346600
						CHANNELS 6 Xposition Yposition Zposition Zrotation Xrotation Yrotation
						JOINT RightWrist
						{
							OFFSET 0.000000 -0.000001 -12.562599
							CHANNELS 6 Xposition Yposition Zposition Zrotation Xrotation Yrotation
							End Site
							{
								OFFSET 0.000000 0.000000 -2.173901
							}
						}
					}
				}
			}
		}
	}
	JOINT LeftHip
	{
		OFFSET 2.047997 -0.047200 -2.693199
		CHANNELS 6 Xposition Yposition Zposition Zrotation Xrotation Yrotation
		JOINT LeftKnee
		{
			OFFSET 0.000000 -0.000001 -18.824400
			CHANNELS 6 Xposition Yposition Zposition Zrotation Xrotation Yrotation
			JOINT LeftAnkle
			{
				OFFSET 0.000000 -0.000002 -19.078199
				CHANNELS 6 Xposition Yposition Zposition Zrotation Xrotation Yrotation
				End Site
				{
					OFFSET 0.000000 -9.342100 0.000001
				}
			}
		}
	}
	JOINT RightHip
	{
		OFFSET -2.129898 -0.022300 -2.538300
		CHANNELS 6 Xposition Yposition Zposition Zrotation Xrotation Yrotation
		JOINT RightKnee
		{
			OFFSET 0.000000 -0.000001 -18.644600
			CHANNELS 6 Xposition Yposition Zposition Zrotation Xrotation Yrotation
			JOINT RightAnkle
			{
				OFFSET 0.000000 -0.000002 -18.801399
				CHANNELS 6 Xposition Yposition Zposition Zrotation Xrotation Yrotation
				End Site
				{
					OFFSET 0.000000 -8.914600 0.000001
				}
			}
		}
	}
}
MOTION
Frames: 4
Frame Time: 0.041667
36.038696 -9.739213 21.283621 278.104348 -2.217200 53.790161 -0.160404 1.629993 7.806298 -14.711406 8.615288 4.088792 0.000001 -0.000001 3.198000 2.170848 -5.134743 0.170260 -0.000007 0.000000 7.440706 53.341684 -14.665984 -9.010364 -0.000002 -0.000001 2.173912 10.978615 -5.151324 11.131901 2.426401 -1.880098 4.759398 9.245719 -4.625044 -5.288259 4.420194 -0.000005 -0.000005 -12.115408 27.630335 -58.928878 0.000002 -0.000006 -10.347095 -23.818546 -3.215164 1.331066 -0.000004 0.000000 -12.496298 -153.890296 182.133770 133.712305 -2.781508 -1.903800 5.072601 -5.990936 1.756052 4.946519 -4.012104 0.000000 0.000003 -15.781775 -9.770033 95.617819 -0.000002 -0.000001 -10.346598 -22.997366 -8.769697 -5.940192 0.000002 -0.000003 -12.562593 68.821601 -13.599556 9.197327 2.047997 -0.047202 -2.693203 128.539775 -31.982217 98.939559 0.000001 -0.000002 -18.824404 -12.773406 187.788770 -31.998118 0.000008 -0.000003 -19.078196 66.379050 -20.765877 47.701194 -2.129894 -0.022297 -2.538300 -346.177100 7.989702 6.962003 0.000005 -0.000005 -18.644600 219.200209 123.192420 109.573358 -0.000000 -0.000001 -18.801401 -25.030885 2.432959 -44.256583
36.029495 -9.740815 21.303415 278.548720 -1.490989 53.761481 -0.160403 1.629991 7.806299 -15.033542 8.390943 4.210695 0.000010 -0.000004 3.197999 2.314679 -5.160303 0.176113 0.000003 0.000003 7.440701 52.746498 -14.753627 -9.159297 -0.000002 -0.000002 2.173906 11.016796 -5.232809 10.918783 2.426403 -1.880095 4.759398 8.966367 -4.441033 -5.538103 4.420199 -0.000002 0.000005 -12.555313 27.315600 -58.859135 -0.000002 -0.000005 -10.347095 -23.743665 -3.249194 1.377357 0.000005 0.000000 -12.496297 -153.928504 181.835441 134.001659 -2.781499 -1.903796 5.072608 -5.843336 2.052168 5.034217 -4.012093 0.000003 -0.000005 -15.704816 -10.756880 95.667960 0.000009 -0.000004 -10.346596 -23.954063 -8.702160 -5.926838 0.000008 -0.000009 -12.562603 69.218250 -13.662125 9.184011 2.047994 -0.047203 -2.693202 129.056616 -31.540837 99.529469 0.000000 -0.000000 -18.824400 -12.131371 187.404162 -32.160776 -0.000001 -0.000002 -19.078196 67.510334 -21.142933 48.230582 -2.129894 -0.022305 -2.538301 -345.954600 7.433669 6.784668 0.000001 -0.000003 -18.644598 219.825513 123.438949 108.523803 -0.000003 -0.000003 -18.801397 -26.075801 3.260807 -46.143815
36.018494 -9.738814 21.324915 278.997327 -0.751284 53.784246 -0.160407 1.629997 7.806313 -15.324402 8.196434 4.277127 0.000001 0.000002 3.197995 2.459594 -5.186479 0.181907 -0.000008 -0.000007 7.440700 52.135954 -14.875636 -9.308382 -0.000015 -0.000001 2.173907 11.032677 -5.323998 10.704554 2.426404 -1.880105 4.759399 8.765685 -4.337730 -5.777602 4.420195 0.000000 -0.000006 -13.093944 27.019909 -58.774714 0.000001 -0.000004 -10.347094 -23.738553 -3.285307 1.403476 -0.000004 -0.000003 -12.496304 -154.086500 181.911597 134.086025 -2.781505 -1.903804 5.072600 -5.787396 2.250200 5.105812 -4.012094 0.000001 0.000000 -15.541375 -11.775337 95.754935 0.000002 -0.000002 -10.346597 -24.931664 -8.661410 -5.907671 0.000003 -0.000003 -12.562597 69.617017 -13.732529 9.182616 2.047988 -0.047201 -2.693194 129.720688 -31.031657 100.184177 0.000001 -0.000003 -18.824400 -11.490207 187.076026 -32.369506 -0.000001 0.000000 -19.078199 68.645184 -21.526390 48.550795 -2.129901 -0.022301 -2.538296 -345.940639 6.730835 6.582919 -0.000004 -0.000003 -18.644598 220.686103 123.488236 107.527757 0.000000 -0.000003 -18.801395 -26.810851 4.411257 -47.803230
36.005791 -9.736314 21.347616 279.459348 0.009827 53.823745 -0.160399 1.629999 7.806307 -15.578350 8.029297 4.346731 0.000009 -0.000003 3.198001 2.595915 -5.226474 0.187591 -0.000001 -0.000004 7.440701 51.443352 -15.040886 -9.486392 -0.000006 -0.000001 2.173903 11.015946 -5.419454 10.484304 2.426402 -1.880101 4.759396 8.621221 -4.263528 -5.990701 4.420197 -0.000000 0.000000 -13.693238 26.710886 -58.743117 0.000002 -0.000006 -10.347096 -23.739625 -3.344299 1.417567 0.000005 -0.000001 -12.496297 -154.307402 181.976634 134.140134 -2.781499 -1.903801 5.072603 -5.774061 2.385900 5.018959 -4.012097 -0.000008 0.000000 -15.325365 -12.763142 96.021224 -0.000002 -0.000002 -10.346596 -25.967756 -8.626783 -5.894442 -0.000001 0.000007 -12.562590 69.945222 -13.760066 9.155449 2.048003 -0.047200 -2.693193 130.406029 -30.367451 100.818353 -0.000000 -0.000004 -18.824398 -12.065771 185.976885 -32.607016 -0.000001 -0.000005 -19.078197 67.924141 -21.472957 46.163432 -2.129892 -0.022300 -2.538300 -346.107269 5.898907 6.397426 0.000001 -0.000002 -18.644598 221.872958 123.469985 106.511800 -0.000002 -0.000003 -18.801405 -27.362861 5.902253 -49.552855
